<svg xmlns="http://www.w3.org/2000/svg" width="107.25" height="107.25" viewBox="0 0 107.25 107.25"><defs><style>.a,.b{fill:none;}.a{opacity:0.6;}.b{stroke:#379c49;stroke-linecap:round;stroke-linejoin:round;stroke-width:4px;}.c,.d{stroke:none;}.d{fill:#379c49;}</style></defs><g transform="translate(-906 -265.5)"><g class="a" transform="translate(909 268.5)"><path class="c" d="M50.625,0A50.625,50.625,0,1,1,0,50.625,50.625,50.625,0,0,1,50.625,0Z"/><path class="d" d="M 50.625 0 C 22.66558837890625 0 0 22.66558837890625 0 50.625 C 0 78.58441162109375 22.66558837890625 101.25 50.625 101.25 C 78.58441162109375 101.25 101.25 78.58441162109375 101.25 50.625 C 101.25 22.66558837890625 78.58441162109375 0 50.625 0 M 50.625 -3 C 57.86301422119141 -3 64.8861083984375 -1.581756591796875 71.49918365478516 1.215354919433594 C 77.88516998291016 3.916397094726563 83.61973571777344 7.782539367675781 88.54360198974609 12.70639801025391 C 93.46746063232422 17.63026428222656 97.33360290527344 23.36483001708984 100.0346450805664 29.75081634521484 C 102.8317565917969 36.3638916015625 104.25 43.38698577880859 104.25 50.625 C 104.25 57.86301422119141 102.8317565917969 64.8861083984375 100.0346450805664 71.49918365478516 C 97.33360290527344 77.88516998291016 93.46746063232422 83.61973571777344 88.54360198974609 88.54360198974609 C 83.61973571777344 93.46746063232422 77.88516998291016 97.33360290527344 71.49918365478516 100.0346450805664 C 64.8861083984375 102.8317565917969 57.86301422119141 104.25 50.625 104.25 C 43.38698577880859 104.25 36.3638916015625 102.8317565917969 29.75081634521484 100.0346450805664 C 23.36483001708984 97.33360290527344 17.63026428222656 93.46746063232422 12.70639801025391 88.54360198974609 C 7.782539367675781 83.61973571777344 3.916397094726563 77.88516998291016 1.215354919433594 71.49918365478516 C -1.581756591796875 64.8861083984375 -3 57.86301422119141 -3 50.625 C -3 43.38698577880859 -1.581756591796875 36.3638916015625 1.215354919433594 29.75081634521484 C 3.916397094726563 23.36483001708984 7.782539367675781 17.63026428222656 12.70639801025391 12.70639801025391 C 17.63026428222656 7.782539367675781 23.36483001708984 3.916397094726563 29.75081634521484 1.215354919433594 C 36.3638916015625 -1.581756591796875 43.38698577880859 -3 50.625 -3 Z"/></g><path class="b" d="M-12937.9-961.14l17.99,17.99,38.273-38.273" transform="translate(13869.54 1281.672)"/></g></svg>