<svg xmlns="http://www.w3.org/2000/svg" width="24" height="18" viewBox="0 0 24 18"><defs><style>.a{fill:#fcfcfc;}</style></defs><path class="a" d="M10,19.5A1.5,1.5,0,1,1,8.5,18,1.5,1.5,0,0,1,10,19.5ZM19.805,3,16.373,15h-2.1l2.541-9H10.819A6.45,6.45,0,0,1,11,7.5a6.481,6.481,0,0,1-7.691,6.386L4.615,17H17.854L21.328,5h1.929L24,3ZM13.5,18A1.5,1.5,0,1,0,15,19.5,1.5,1.5,0,0,0,13.5,18ZM4.5,3A4.5,4.5,0,1,0,9,7.5,4.5,4.5,0,0,0,4.5,3ZM4.031,9.484,2.344,7.848l.695-.7.992.94L6.146,5.922l.7.7Z" transform="translate(0 -3)"/></svg>