<svg xmlns="http://www.w3.org/2000/svg" width="26.09" height="45.656" viewBox="0 0 26.09 45.656"><defs><style>.a{fill:#a8aab1;}.b{fill:#fff;}</style></defs><g transform="translate(-313.85 -73.589)"><path class="a" d="M339.94,73.589v41.192a4.52,4.52,0,0,1-4.573,4.464H318.42a4.518,4.518,0,0,1-4.57-4.464V73.589Z"/><path class="b" d="M327.457,100.842a1.981,1.981,0,0,1,1.646.751,6.506,6.506,0,0,1-.005,5.907,1.977,1.977,0,0,1-1.641.742,2.073,2.073,0,0,1-1.705-.813,6.629,6.629,0,0,1,.064-5.846A1.979,1.979,0,0,1,327.457,100.842Zm0,1.151a.7.7,0,0,0-.45.161,1.078,1.078,0,0,0-.307.576,7.958,7.958,0,0,0-.143,1.815,7.86,7.86,0,0,0,.129,1.752,1.234,1.234,0,0,0,.323.635.712.712,0,0,0,.9,0,1.078,1.078,0,0,0,.307-.576,11.732,11.732,0,0,0,.015-3.561,1.246,1.246,0,0,0-.324-.638A.684.684,0,0,0,327.457,101.993Z" transform="translate(-5.995 -14.517)"/><path class="b" d="M339.072,100.842a1.981,1.981,0,0,1,1.646.751,6.5,6.5,0,0,1-.005,5.907,1.977,1.977,0,0,1-1.641.742,2.073,2.073,0,0,1-1.705-.813,6.627,6.627,0,0,1,.064-5.846A1.978,1.978,0,0,1,339.072,100.842Zm0,1.151a.693.693,0,0,0-.45.161,1.078,1.078,0,0,0-.307.576,7.966,7.966,0,0,0-.143,1.815,7.871,7.871,0,0,0,.129,1.752,1.237,1.237,0,0,0,.323.635.712.712,0,0,0,.9,0,1.078,1.078,0,0,0,.307-.576,11.752,11.752,0,0,0,.014-3.561,1.246,1.246,0,0,0-.324-.638A.684.684,0,0,0,339.072,101.993Z" transform="translate(-12.182 -14.517)"/><path class="b" d="M350.793,108.119V106.66h-2.966v-1.216l3.144-4.6h1.166v4.6h.9v1.221h-.9v1.459Zm0-2.68v-2.477l-1.666,2.477Z" transform="translate(-18.099 -14.517)"/><path class="b" d="M330.123,145.358a.99.99,0,0,1,.823.376,3.249,3.249,0,0,1,0,2.953.989.989,0,0,1-.821.371,1.037,1.037,0,0,1-.853-.407,3.317,3.317,0,0,1,.032-2.923A.989.989,0,0,1,330.123,145.358Zm0,.576a.349.349,0,0,0-.225.08.538.538,0,0,0-.153.288,5.863,5.863,0,0,0-.007,1.783.614.614,0,0,0,.162.318.345.345,0,0,0,.223.079.35.35,0,0,0,.225-.08.541.541,0,0,0,.153-.288,5.871,5.871,0,0,0,.008-1.781.624.624,0,0,0-.162-.319A.345.345,0,0,0,330.123,145.934Z" transform="translate(-8.042 -38.23)"/><path class="b" d="M336.148,145.358a.99.99,0,0,1,.823.376,3.253,3.253,0,0,1,0,2.953.989.989,0,0,1-.821.371,1.036,1.036,0,0,1-.853-.407,3.313,3.313,0,0,1,.032-2.923A.989.989,0,0,1,336.148,145.358Zm0,.576a.349.349,0,0,0-.225.08.542.542,0,0,0-.153.288,3.985,3.985,0,0,0-.071.907,3.927,3.927,0,0,0,.064.876.614.614,0,0,0,.162.318.345.345,0,0,0,.224.079.348.348,0,0,0,.225-.08.538.538,0,0,0,.153-.288,5.832,5.832,0,0,0,.008-1.781.624.624,0,0,0-.162-.319A.343.343,0,0,0,336.148,145.934Z" transform="translate(-11.251 -38.23)"/><path class="b" d="M342.225,149v-.729h-1.483v-.608l1.572-2.3h.584v2.3h.45v.61h-.45V149Zm0-1.34v-1.238l-.833,1.238Z" transform="translate(-14.325 -38.23)"/><path class="b" d="M347.341,152.352v-.695h.695v.695Z" transform="translate(-17.84 -41.585)"/><path class="b" d="M352.022,149h-.694v-2.618a2.392,2.392,0,0,1-.9.527v-.63a2,2,0,0,0,.591-.337,1.277,1.277,0,0,0,.437-.579h.564Z" transform="translate(-19.485 -38.23)"/><g transform="translate(323.086 113.362)"><path class="b" d="M333.614,162.621l3.935-3.925,3.916,3.925Z" transform="translate(-333.614 -158.697)"/></g></g></svg>