<svg xmlns="http://www.w3.org/2000/svg" width="26.088" height="150" viewBox="0 0 26.088 150"><defs><style>.a{fill:#a8aab1;}.b{fill:#fff;}</style></defs><g transform="translate(-161.811 -73.589)"><g transform="translate(172.194 91.19)"><g transform="translate(0 0)"><path class="a" d="M183.424,110.227h2.9a8.4,8.4,0,0,1,1.283.072,1.9,1.9,0,0,1,.756.3,1.857,1.857,0,0,1,.556.605,1.64,1.64,0,0,1,.222.848,1.718,1.718,0,0,1-1.018,1.572,1.907,1.907,0,0,1,1.018.657,1.745,1.745,0,0,1,.356,1.092,2.159,2.159,0,0,1-.23.961,1.945,1.945,0,0,1-.628.747,2.072,2.072,0,0,1-.981.343q-.366.04-1.765.049h-2.467Zm1.463,1.206v1.676h.959q.855,0,1.063-.025a.963.963,0,0,0,.591-.259.764.764,0,0,0,.215-.566.8.8,0,0,0-.185-.546.841.841,0,0,0-.551-.255q-.218-.025-1.251-.024Zm0,2.881v1.938h1.355a6.588,6.588,0,0,0,1-.045.9.9,0,0,0,.531-.289.89.89,0,0,0,.206-.615.947.947,0,0,0-.159-.553.892.892,0,0,0-.457-.331,4.972,4.972,0,0,0-1.3-.1Z" transform="translate(-183.424 -110.227)"/></g></g><path class="b" d="M189.1,178.529a.213.213,0,1,0,.216.213.213.213,0,0,0-.216-.213" transform="translate(-14.068 -54.526)"/><g transform="translate(161.81 73.589)"><path class="a" d="M187.509,182.317l0,1.376a.879.879,0,0,0,.254.625.852.852,0,0,0,.612.259h0a.879.879,0,0,0,.871-.879l0-1.381-.871-.431Z" transform="translate(-175.162 -129.859)"/><path class="a" d="M190.652,181.428l0-.444-.447.222Z" transform="translate(-176.565 -129.391)"/><path class="a" d="M187.525,176.035l0,.436.439-.218Z" transform="translate(-175.17 -126.819)"/><path class="a" d="M187.514,180.988l0,.442.444-.222Z" transform="translate(-175.164 -129.393)"/><path class="a" d="M182.452,174.193a.856.856,0,0,0-.78.491.885.885,0,0,0,.4,1.18l.831.413,1.157-.576,0-.809-1.228-.61A.841.841,0,0,0,182.452,174.193Z" transform="translate(-172.083 -125.862)"/><path class="a" d="M182.064,179.818a.888.888,0,0,0-.4,1.182.861.861,0,0,0,1.162.4l1.223-.606v-.816l-1.153-.574Z" transform="translate(-172.081 -128.571)"/><path class="a" d="M185.94,178.939v-.727l-.733.364Z" transform="translate(-173.968 -127.95)"/><path class="a" d="M188.4,170.455a.875.875,0,0,0-.868.88l-.005,1.379.861.428.878-.434,0-1.37A.877.877,0,0,0,188.4,170.455Z" transform="translate(-175.172 -123.92)"/><path class="a" d="M193.907,179.822l-.834-.416-1.155.571,0,.818,1.229.609a.864.864,0,0,0,1.161-.4A.888.888,0,0,0,193.907,179.822Z" transform="translate(-177.452 -128.571)"/><path class="a" d="M161.81,73.589V218.755a4.843,4.843,0,0,0,4.571,4.834h16.945a4.843,4.843,0,0,0,4.572-4.834V73.589ZM179,126.185a1.239,1.239,0,0,1-1.669.574l-1.061-.526v1.194a1.254,1.254,0,0,1-1.248,1.256h0a1.224,1.224,0,0,1-.881-.371,1.263,1.263,0,0,1-.364-.89l0-1.189-1.055.523a1.239,1.239,0,0,1-1.668-.575,1.262,1.262,0,0,1,.572-1.683l.574-.286-.574-.285a1.266,1.266,0,0,1-.572-1.683,1.24,1.24,0,0,1,1.671-.575l1.059.527V121a1.247,1.247,0,1,1,2.495.005l0,1.181,1.05-.52a1.218,1.218,0,0,1,.551-.129,1.236,1.236,0,0,1,1.118.7,1.265,1.265,0,0,1-.568,1.683l-.579.287.579.288A1.266,1.266,0,0,1,179,126.185Zm-4.149-24.462a6.884,6.884,0,1,1,6.884-6.885A6.884,6.884,0,0,1,174.854,101.724Z" transform="translate(-161.81 -73.589)"/><path class="a" d="M187.52,177.357l0,1.1.866.431.874-.433,0-1.095-.876-.433Z" transform="translate(-175.167 -127.283)"/><path class="a" d="M191.924,178.218l0,.721.729-.361Z" transform="translate(-177.456 -127.954)"/><path class="a" d="M190.656,176.47v-.448l-.45.224Z" transform="translate(-176.565 -126.812)"/><path class="a" d="M193.911,175.858a.889.889,0,0,0,.4-1.18.865.865,0,0,0-.78-.492.851.851,0,0,0-.382.089l-1.219.605,0,.821,1.152.571Z" transform="translate(-177.459 -125.858)"/></g><path class="b" d="M174.621,144.221a1.98,1.98,0,0,1,1.646.751,6.5,6.5,0,0,1,0,5.907,1.978,1.978,0,0,1-1.641.742,2.074,2.074,0,0,1-1.705-.813,6.625,6.625,0,0,1,.064-5.845A1.976,1.976,0,0,1,174.621,144.221Zm0,1.152a.694.694,0,0,0-.45.16,1.084,1.084,0,0,0-.307.576,7.943,7.943,0,0,0-.143,1.814,7.863,7.863,0,0,0,.129,1.753,1.228,1.228,0,0,0,.324.635.711.711,0,0,0,.9,0,1.081,1.081,0,0,0,.306-.576,11.715,11.715,0,0,0,.015-3.561,1.253,1.253,0,0,0-.324-.638A.684.684,0,0,0,174.621,145.373Z" transform="translate(-5.434 -36.7)"/><path class="b" d="M186.341,144.221a1.98,1.98,0,0,1,1.646.751,6.5,6.5,0,0,1-.005,5.907,1.977,1.977,0,0,1-1.641.742,2.075,2.075,0,0,1-1.705-.813,6.629,6.629,0,0,1,.064-5.845A1.977,1.977,0,0,1,186.341,144.221Zm0,1.152a.693.693,0,0,0-.45.16,1.078,1.078,0,0,0-.306.576,7.942,7.942,0,0,0-.143,1.814,7.862,7.862,0,0,0,.129,1.753,1.224,1.224,0,0,0,.324.635.711.711,0,0,0,.9,0,1.078,1.078,0,0,0,.306-.576,7.838,7.838,0,0,0,.144-1.809,7.926,7.926,0,0,0-.128-1.752,1.256,1.256,0,0,0-.324-.638A.686.686,0,0,0,186.341,145.373Z" transform="translate(-11.524 -36.7)"/><path class="b" d="M198.178,151.5v-1.458h-2.966v-1.216l3.144-4.6h1.167v4.6h.9v1.221h-.9V151.5Zm0-2.679v-2.477l-1.666,2.477Z" transform="translate(-17.355 -36.7)"/></g></svg>